<svg xmlns="http://www.w3.org/2000/svg" xmlns:xlink="http://www.w3.org/1999/xlink" width="1080" zoomAndPan="magnify" viewBox="0 0 810 809.999993" height="1080" preserveAspectRatio="xMidYMid meet" version="1.0"><defs><clipPath id="deabc84f4c"><path d="M 9.628906 9.628906 L 800.128906 9.628906 L 800.128906 800.128906 L 9.628906 800.128906 Z M 9.628906 9.628906 " clip-rule="nonzero"/></clipPath></defs><g clip-path="url(#deabc84f4c)"><path fill="#89d957" d="M 404.925781 9.617188 C 186.078125 9.617188 9.585938 187.871094 9.585938 404.957031 C 9.585938 623.808594 187.84375 800.300781 404.925781 800.300781 C 623.777344 800.300781 800.269531 622.042969 800.269531 404.957031 C 800.269531 187.871094 623.777344 9.617188 404.925781 9.617188 Z M 650.253906 595.570312 C 639.664062 630.867188 592.007812 682.050781 547.886719 682.050781 L 544.355469 680.285156 C 479.054688 676.757812 389.042969 614.984375 306.09375 514.382812 L 276.089844 477.320312 C 193.136719 376.71875 149.011719 277.882812 159.601562 214.347656 C 166.664062 168.457031 233.730469 131.394531 272.558594 131.394531 C 291.972656 131.394531 299.03125 140.21875 300.796875 147.28125 C 321.976562 186.109375 350.214844 253.175781 350.214844 277.882812 L 350.214844 281.414062 C 344.921875 293.769531 334.332031 300.828125 325.507812 306.121094 C 313.152344 313.183594 306.09375 318.476562 304.328125 330.832031 C 304.328125 334.363281 307.855469 353.777344 362.570312 420.84375 L 385.511719 449.082031 C 440.226562 514.382812 457.875 521.445312 461.40625 521.445312 C 475.523438 523.207031 480.820312 517.914062 491.410156 507.324219 C 498.46875 498.5 507.292969 489.675781 519.648438 487.910156 L 523.175781 487.910156 C 547.886719 493.203125 607.894531 532.035156 643.191406 562.035156 C 648.488281 563.800781 657.3125 572.625 650.253906 595.570312 Z M 650.253906 595.570312 " fill-opacity="1" fill-rule="nonzero"/></g></svg>