<svg xmlns="http://www.w3.org/2000/svg" xmlns:xlink="http://www.w3.org/1999/xlink" width="1080" zoomAndPan="magnify" viewBox="0 0 810 809.999993" height="1080" preserveAspectRatio="xMidYMid meet" version="1.0"><defs><clipPath id="c5c0f4b20c"><path d="M 219 264 L 781.398438 264 L 781.398438 742 L 219 742 Z M 219 264 " clip-rule="nonzero"/></clipPath><clipPath id="eebc576ae3"><path d="M 183 640 L 239 640 L 239 801.328125 L 183 801.328125 Z M 183 640 " clip-rule="nonzero"/></clipPath><clipPath id="1afa8dca45"><path d="M 28.398438 8.578125 L 456 8.578125 L 456 801.328125 L 28.398438 801.328125 Z M 28.398438 8.578125 " clip-rule="nonzero"/></clipPath></defs><g clip-path="url(#c5c0f4b20c)"><path fill="#2a5c05" d="M 772.234375 264.402344 C 733.375 295.820312 672.027344 337.632812 588.96875 362.65625 C 539.796875 377.46875 502.039062 380.660156 469.230469 381.898438 C 459.570312 427.023438 436.914062 497.007812 384.757812 551.664062 C 424.234375 546.730469 464.273438 550.863281 524.011719 534.59375 C 561.246094 524.441406 615.714844 503.753906 676.910156 456.15625 C 614.972656 526.15625 555.691406 555.460938 514.34375 569.414062 C 431.226562 597.460938 380.640625 580.648438 314.984375 616.570312 C 288.960938 630.8125 211.117188 680.449219 219.753906 741.171875 C 227.746094 719.742188 238.691406 706.207031 251.789062 698.203125 C 303.75 666.46875 366.929688 711.933594 446.402344 718.796875 C 565.347656 729.074219 662.429688 642.511719 680.277344 625.816406 C 819.539062 495.585938 775.53125 279.421875 772.234375 264.402344 Z M 772.234375 264.402344 " fill-opacity="1" fill-rule="nonzero"/></g><g clip-path="url(#eebc576ae3)"><path fill="#2a5c05" d="M 238.113281 640.414062 C 230.625 643.800781 207.1875 655.546875 193.292969 682.894531 C 183.070312 703 183.007812 721.703125 183.550781 730.484375 C 184.648438 736.933594 185.894531 743.097656 187.226562 748.945312 C 192.390625 771.492188 198.972656 789.386719 203.839844 801.214844 C 202.375 793.28125 200.5 780.867188 200.15625 765.484375 L 200.15625 765.476562 C 199.609375 740.542969 203.09375 707.800781 218.796875 673.625 C 224.496094 661.226562 231.085938 650.203125 238.113281 640.414062 Z M 238.113281 640.414062 " fill-opacity="1" fill-rule="nonzero"/></g><g clip-path="url(#1afa8dca45)"><path fill="#6e9a32" d="M 290.371094 8.65625 C 280.921875 57.726562 260.976562 129.253906 213.625 201.9375 C 141.679688 312.367188 77.871094 315.863281 43.832031 407.371094 C 0.789062 523.101562 60.082031 640.128906 73.160156 664.574219 C 114.597656 742.03125 174.75 783.691406 203.839844 801.210938 C 186.792969 785.628906 146.617188 744.636719 131.136719 678.34375 C 127.742188 663.804688 115.949219 608.421875 138.433594 545.628906 C 166.984375 465.898438 218.472656 456.882812 274.804688 375.25 C 296.730469 343.476562 325.023438 292.542969 341.109375 216.695312 C 338.898438 310.136719 312.476562 370.773438 289.863281 408.101562 C 244.414062 483.136719 194.902344 502.90625 167.878906 572.703125 C 157.164062 600.378906 129.664062 688.511719 175.410156 729.355469 C 167.707031 707.824219 167.34375 690.417969 172.195312 675.859375 C 191.457031 618.085938 269.058594 612.097656 334.234375 566.097656 C 431.777344 497.253906 450.183594 368.472656 453.066406 344.207031 C 475.566406 154.863281 302.570312 18.011719 290.371094 8.65625 Z M 290.371094 8.65625 " fill-opacity="1" fill-rule="nonzero"/></g></svg>