<svg xmlns="http://www.w3.org/2000/svg" xmlns:xlink="http://www.w3.org/1999/xlink" width="1080" zoomAndPan="magnify" viewBox="0 0 810 809.999993" height="1080" preserveAspectRatio="xMidYMid meet" version="1.0"><defs><clipPath id="c888ec96b9"><path d="M 57 42 L 786.46875 42 L 786.46875 771.792969 L 57 771.792969 Z M 57 42 " clip-rule="nonzero"/></clipPath><clipPath id="58057893e3"><path d="M 23.011719 38.292969 L 754 38.292969 L 754 768 L 23.011719 768 Z M 23.011719 38.292969 " clip-rule="nonzero"/></clipPath></defs><g clip-path="url(#c888ec96b9)"><path fill="#ffbd00" d="M 421.820312 42.820312 C 415.089844 42.820312 408.414062 42.9375 401.683594 43.414062 C 349.609375 46.335938 300.628906 60.035156 256.539062 82.492188 C 232.347656 94.585938 209.886719 109.476562 189.152344 126.691406 C 164.367188 147.242188 142.199219 171.011719 123.671875 197.398438 C 107.761719 219.679688 94.476562 243.921875 84.167969 269.597656 C 66.648438 312.128906 57.175781 358.652344 57.175781 407.378906 C 57.175781 608.71875 220.195312 771.9375 421.820312 771.9375 C 470.558594 771.9375 517.035156 762.34375 559.515625 744.953125 C 585.195312 734.644531 609.386719 721.363281 631.730469 705.457031 C 658.125 686.933594 682.019531 664.890625 702.574219 640.113281 C 719.675781 619.441406 734.691406 596.804688 746.785156 572.621094 C 772.167969 523 786.46875 466.886719 786.46875 407.378906 C 786.46875 205.976562 623.269531 42.820312 421.820312 42.820312 " fill-opacity="1" fill-rule="nonzero"/></g><g clip-path="url(#58057893e3)"><path fill="#ffde50" d="M 388.457031 38.292969 C 381.78125 38.292969 375.050781 38.472656 368.316406 38.890625 C 335.964844 40.675781 304.742188 46.75 275.128906 56.402344 C 257.195312 62.238281 239.796875 69.507812 223.234375 77.964844 C 222.933594 78.144531 222.757812 78.261719 222.457031 78.261719 C 215.488281 81.898438 208.457031 85.710938 201.78125 89.820312 C 192.128906 95.359375 182.777344 101.613281 173.898438 108.34375 C 167.640625 112.574219 161.625 117.339844 155.84375 122.164062 C 148.097656 128.597656 140.652344 135.269531 133.5 142.300781 C 117.710938 157.609375 103.472656 174.40625 90.78125 192.335938 C 90.601562 192.457031 90.484375 192.753906 90.304688 192.871094 C 74.457031 215.210938 61.167969 239.394531 50.800781 265.070312 C 33.285156 307.660156 23.808594 354.183594 23.808594 402.910156 C 23.808594 604.25 186.886719 767.46875 388.457031 767.46875 C 437.195312 767.46875 483.726562 757.820312 526.152344 740.484375 C 551.832031 730.117188 576.019531 716.835938 598.363281 700.929688 C 598.664062 700.8125 598.78125 700.691406 599.078125 700.394531 C 617.015625 687.824219 633.816406 673.527344 649.128906 657.804688 C 656.277344 650.65625 662.832031 643.386719 669.269531 635.644531 C 674.035156 629.628906 678.859375 623.671875 683.269531 617.414062 C 689.824219 608.480469 696.082031 599.1875 701.621094 589.539062 C 705.734375 582.867188 709.488281 575.835938 713.121094 568.867188 C 713.121094 568.570312 713.300781 568.390625 713.417969 568.09375 C 721.878906 551.472656 729.207031 534.140625 735.046875 516.210938 C 746.84375 480.46875 753.101562 442.402344 753.101562 402.910156 C 753.101562 201.511719 589.902344 38.292969 388.457031 38.292969 " fill-opacity="1" fill-rule="nonzero"/></g><path fill="#ffea94" d="M 649.128906 657.804688 C 633.816406 673.527344 617.015625 687.824219 599.078125 700.394531 L 90.78125 192.335938 C 103.472656 174.40625 117.710938 157.609375 133.5 142.300781 L 649.128906 657.804688 " fill-opacity="1" fill-rule="nonzero"/><path fill="#ffea94" d="M 735.046875 516.210938 C 729.207031 534.140625 721.878906 551.472656 713.417969 568.09375 C 713.300781 568.390625 713.121094 568.570312 713.121094 568.867188 L 222.457031 78.261719 C 222.757812 78.261719 222.933594 78.144531 223.234375 77.964844 C 239.796875 69.507812 257.195312 62.238281 275.128906 56.402344 L 735.046875 516.210938 " fill-opacity="1" fill-rule="nonzero"/><path fill="#ffea94" d="M 701.621094 589.539062 C 696.082031 599.1875 689.824219 608.480469 683.269531 617.414062 L 173.898438 108.34375 C 182.777344 101.613281 192.128906 95.359375 201.78125 89.820312 L 701.621094 589.539062 " fill-opacity="1" fill-rule="nonzero"/><path fill="#faa300" d="M 236.164062 594.78125 C 284.1875 642.792969 345.554688 669.003906 408.296875 673.527344 C 471.035156 669.179688 532.585938 642.792969 580.550781 594.78125 L 217.214844 231.710938 C 130.402344 338.457031 136.839844 495.480469 236.164062 594.78125 " fill-opacity="1" fill-rule="nonzero"/><path fill="#f68e00" d="M 196.539062 594.78125 C 254.574219 652.976562 332.449219 679.246094 408.296875 673.527344 C 345.554688 669.003906 284.1875 642.792969 236.164062 594.78125 C 136.839844 495.480469 130.402344 338.457031 217.214844 231.710938 C 223.234375 224.5625 229.488281 217.535156 236.164062 210.863281 C 284.007812 162.851562 345.554688 136.460938 408.296875 132.113281 C 332.328125 126.394531 254.574219 152.664062 196.359375 210.863281 C 90.183594 316.835938 90.304688 488.808594 196.539062 594.78125 " fill-opacity="1" fill-rule="nonzero"/><path fill="#ffbd00" d="M 217.214844 231.710938 L 580.550781 594.78125 C 686.726562 488.808594 686.726562 317.011719 580.550781 210.863281 C 532.585938 162.851562 471.035156 136.460938 408.296875 132.113281 C 345.554688 136.460938 284.007812 162.851562 236.164062 210.863281 C 229.488281 217.535156 223.234375 224.5625 217.214844 231.710938 " fill-opacity="1" fill-rule="nonzero"/><path fill="#f68e00" d="M 409.605469 423.640625 L 336.558594 423.640625 L 336.558594 402.316406 L 465.019531 402.316406 C 450.300781 415.539062 430.9375 423.640625 409.605469 423.640625 Z M 336.558594 324.460938 L 491.117188 324.460938 C 492.1875 329.699219 492.726562 335.0625 492.726562 340.601562 C 492.726562 349.417969 491.296875 357.875 488.792969 365.859375 L 336.558594 365.859375 Z M 336.558594 257.503906 L 409.605469 257.503906 C 435.527344 257.503906 458.644531 269.417969 473.898438 288.003906 L 336.558594 288.003906 Z M 574.890625 365.859375 L 526.449219 365.859375 C 528.234375 357.699219 529.191406 349.238281 529.191406 340.601562 C 529.191406 335.121094 528.714844 329.761719 527.996094 324.460938 L 574.890625 324.460938 C 584.957031 324.460938 593.121094 316.296875 593.121094 306.230469 C 593.121094 296.164062 584.957031 288.003906 574.890625 288.003906 L 516.855469 288.003906 C 497.371094 248.390625 456.675781 221.046875 409.605469 221.046875 L 318.328125 221.046875 C 308.257812 221.046875 300.09375 229.210938 300.09375 239.277344 L 300.09375 288.003906 L 255.230469 288.003906 C 245.160156 288.003906 236.996094 296.164062 236.996094 306.230469 C 236.996094 316.296875 245.160156 324.460938 255.230469 324.460938 L 300.09375 324.460938 L 300.09375 365.859375 L 255.230469 365.859375 C 245.160156 365.859375 236.996094 374.019531 236.996094 384.085938 C 236.996094 394.152344 245.160156 402.316406 255.230469 402.316406 L 300.09375 402.316406 L 300.09375 560.050781 C 300.09375 570.117188 308.257812 578.28125 318.328125 578.28125 C 328.394531 578.28125 336.558594 570.117188 336.558594 560.050781 L 336.558594 460.097656 L 409.605469 460.097656 C 452.925781 460.097656 490.820312 436.863281 511.792969 402.316406 L 574.890625 402.316406 C 584.957031 402.316406 593.121094 394.152344 593.121094 384.085938 C 593.121094 374.019531 584.957031 365.859375 574.890625 365.859375 " fill-opacity="1" fill-rule="nonzero"/><path fill="#ffea94" d="M 396.082031 429.121094 L 323.035156 429.121094 L 323.035156 407.796875 L 451.492188 407.796875 C 436.777344 421.019531 417.414062 429.121094 396.082031 429.121094 Z M 323.035156 329.9375 L 477.652344 329.9375 C 478.664062 335.179688 479.199219 340.542969 479.199219 346.023438 C 479.199219 354.839844 477.828125 363.355469 475.265625 371.339844 L 323.035156 371.339844 Z M 323.035156 262.925781 L 396.082031 262.925781 C 422 262.925781 445.179688 274.839844 460.429688 293.484375 L 323.035156 293.484375 Z M 561.363281 371.339844 L 512.921875 371.339844 C 514.710938 363.179688 515.664062 354.71875 515.664062 346.023438 C 515.664062 340.542969 515.1875 335.242188 514.472656 329.9375 L 561.363281 329.9375 C 571.433594 329.9375 579.597656 321.777344 579.597656 311.710938 C 579.597656 301.644531 571.433594 293.484375 561.363281 293.484375 L 503.332031 293.484375 C 483.847656 253.871094 443.152344 226.46875 396.082031 226.46875 L 304.800781 226.46875 C 294.730469 226.46875 286.570312 234.628906 286.570312 244.695312 L 286.570312 293.484375 L 241.703125 293.484375 C 231.632812 293.484375 223.472656 301.644531 223.472656 311.710938 C 223.472656 321.777344 231.632812 329.9375 241.703125 329.9375 L 286.570312 329.9375 L 286.570312 371.339844 L 241.703125 371.339844 C 231.632812 371.339844 223.472656 379.5 223.472656 389.566406 C 223.472656 399.632812 231.632812 407.796875 241.703125 407.796875 L 286.570312 407.796875 L 286.570312 565.53125 C 286.570312 575.597656 294.730469 583.761719 304.800781 583.761719 C 314.871094 583.761719 323.035156 575.597656 323.035156 565.53125 L 323.035156 465.578125 L 396.082031 465.578125 C 439.398438 465.578125 477.292969 442.34375 498.324219 407.796875 L 561.363281 407.796875 C 571.433594 407.796875 579.597656 399.632812 579.597656 389.566406 C 579.597656 379.5 571.433594 371.339844 561.363281 371.339844 " fill-opacity="1" fill-rule="nonzero"/></svg>